<svg width="29" height="29" viewBox="0 0 29 29" fill="none" xmlns="http://www.w3.org/2000/svg">
<path d="M14.5 14.4999C12.6208 14.4999 11.0121 13.8308 9.67394 12.4926C8.33574 11.1544 7.66665 9.54575 7.66665 7.66659C7.66665 5.78742 8.33574 4.17874 9.67394 2.84054C11.0121 1.50235 12.6208 0.833252 14.5 0.833252C16.3791 0.833252 17.9878 1.50235 19.326 2.84054C20.6642 4.17874 21.3333 5.78742 21.3333 7.66659C21.3333 9.54575 20.6642 11.1544 19.326 12.4926C17.9878 13.8308 16.3791 14.4999 14.5 14.4999ZM0.833313 28.1666V23.3833C0.833313 22.4152 1.08273 21.5252 1.58156 20.7131C2.0804 19.9011 2.74209 19.2821 3.56665 18.8562C5.33192 17.9735 7.12567 17.3113 8.9479 16.8694C10.7701 16.4275 12.6208 16.2071 14.5 16.2083C16.3791 16.2083 18.2298 16.4292 20.0521 16.8711C21.8743 17.313 23.668 17.9747 25.4333 18.8562C26.259 19.2833 26.9213 19.9028 27.4201 20.7148C27.9189 21.5269 28.1678 22.4163 28.1666 23.3833V28.1666H0.833313Z" fill="#626161"/>
</svg>
