<svg width="29" height="35" viewBox="0 0 29 35" fill="none" xmlns="http://www.w3.org/2000/svg">
<path d="M23.0416 12.3751V8.95842C23.0416 4.17508 19.2833 0.416748 14.5 0.416748C9.71665 0.416748 5.95831 4.17508 5.95831 8.95842V12.3751C3.05415 12.3751 0.833313 14.5959 0.833313 17.5001V29.4584C0.833313 32.3626 3.05415 34.5834 5.95831 34.5834H23.0416C25.9458 34.5834 28.1666 32.3626 28.1666 29.4584V17.5001C28.1666 14.5959 25.9458 12.3751 23.0416 12.3751ZM9.37498 8.95842C9.37498 6.05425 11.5958 3.83341 14.5 3.83341C17.4041 3.83341 19.625 6.05425 19.625 8.95842V12.3751H9.37498V8.95842ZM16.3791 23.4792L16.2083 23.6501V26.0417C16.2083 27.0667 15.525 27.7501 14.5 27.7501C13.475 27.7501 12.7916 27.0667 12.7916 26.0417V23.6501C11.7666 22.6251 11.5958 21.0876 12.6208 20.0626C13.6458 19.0376 15.1833 18.8667 16.2083 19.8917C17.2333 20.7459 17.4041 22.4542 16.3791 23.4792Z" fill="#626161"/>
</svg>
